<?xml version="1.0" encoding="iso-8859-1"?>
<!-- Generator: Adobe Illustrator 16.0.0, SVG Export Plug-In . SVG Version: 6.00 Build 0)  -->
<!DOCTYPE svg PUBLIC "-//W3C//DTD SVG 1.1//EN" "http://www.w3.org/Graphics/SVG/1.1/DTD/svg11.dtd">
<svg version="1.1" id="Capa_1" xmlns="http://www.w3.org/2000/svg" xmlns:xlink="http://www.w3.org/1999/xlink" x="0px" y="0px"
	 width="47.727px" height="47.727px" viewBox="0 0 47.727 47.727" style="enable-background:new 0 0 47.727 47.727;"
	 xml:space="preserve">
<g>
	<g id="Meat_Cleaver">
		<g>
			<path d="M28.387,28.421c1.426-0.031,1.978,0.233,2.558,1.163c1.292,2.066,3.752,6.078,6.836,8.346
				c3.08,2.268,5.381,2.016,5.553,3.46c0.406,3.433,5.229,2.319,3.54-1.462c-2.088-4.678-5.289-6.568-6.975-8.021
				c-1.688-1.453-5.871-4.938-7.965-7.033l-1.788,1.789L28.387,28.421z"/>
			<path d="M45.323,43.947c-1.091,0-2.283-0.772-2.488-2.5c-0.053-0.442-0.458-0.646-1.603-1.108
				c-0.959-0.39-2.274-0.921-3.75-2.007c-3.078-2.264-5.536-6.198-6.856-8.312l-0.106-0.172c-0.437-0.697-0.774-0.93-1.921-0.93
				l-0.202,0.002c-0.19-0.012-0.391-0.116-0.472-0.305c-0.079-0.188-0.037-0.404,0.106-0.549l3.547-3.547
				c0.188-0.189,0.521-0.189,0.707,0c1.686,1.684,4.731,4.275,6.746,5.989l1.191,1.017c0.282,0.244,0.607,0.5,0.964,0.779
				c1.735,1.364,4.357,3.426,6.141,7.418c0.722,1.618,0.306,2.666-0.006,3.146C46.885,43.546,46.139,43.947,45.323,43.947z
				 M29.526,27.986c0.832,0.147,1.35,0.543,1.842,1.332l0.107,0.172c1.284,2.057,3.677,5.886,6.601,8.035
				c1.375,1.012,2.571,1.498,3.532,1.887c1.169,0.474,2.093,0.848,2.221,1.918c0.142,1.193,0.865,1.617,1.495,1.617
				c0.475,0,0.908-0.231,1.161-0.621c0.348-0.537,0.324-1.316-0.068-2.195c-1.681-3.768-4.088-5.659-5.845-7.04
				c-0.369-0.29-0.707-0.556-1-0.808l-1.188-1.014c-1.894-1.611-4.69-3.99-6.448-5.693L29.526,27.986z"/>
		</g>
		<path d="M21.619,35.783c-0.351,0-0.741-0.08-1.169-0.239C15.22,33.598,0.378,17.363,0.006,14.117
			c-0.291-2.514,9.927-9.538,10.029-9.608c2.075-1.401,4.171-0.783,6.232,1.839c1.356,1.729,14.494,16.578,15.973,18.057
			c0.011,0.01,0.021,0.021,0.031,0.033c0.009,0.008,0.018,0.016,0.025,0.024c0.392,0.39,0.392,1.022,0,1.414
			c-0.347,0.347-1.016,1.022-1.847,1.864c-2.587,2.615-6.497,6.566-7.604,7.586C22.516,35.631,22.104,35.783,21.619,35.783z
			 M2.017,13.985c0.322,1.088,3.54,5.465,8.888,11.037c6.176,6.434,9.764,8.76,10.662,8.764c1.176-1.098,5.098-5.062,7.461-7.451
			c0.442-0.447,0.839-0.848,1.166-1.178c-3.167-3.408-14.359-16.12-15.5-17.572c-1.622-2.064-2.587-2.059-3.54-1.417
			C8.038,8.272,2.588,12.743,2.017,13.985z"/>
		<path d="M24.429,33.335c-0.049,0-0.097-0.005-0.146-0.015C19.729,32.434,3.408,14.932,2.979,11.508
			c-0.053-0.411,0.24-0.786,0.65-0.837c0.414-0.047,0.786,0.24,0.837,0.651C4.826,14.19,20.576,31.07,24.571,31.849
			c0.406,0.079,0.672,0.474,0.593,0.88C25.093,33.086,24.779,33.335,24.429,33.335z"/>
		<path d="M12.15,12.243c-0.559,0-1.083-0.217-1.478-0.611c-0.812-0.815-0.812-2.14,0-2.954c0.788-0.789,2.167-0.79,2.955,0
			c0.395,0.394,0.61,0.918,0.61,1.476s-0.218,1.083-0.613,1.477C13.233,12.026,12.708,12.243,12.15,12.243z M12.15,9.066
			c-0.292,0-0.565,0.113-0.771,0.319c-0.424,0.424-0.424,1.115,0,1.54c0.41,0.41,1.128,0.41,1.537,0
			c0.207-0.207,0.32-0.48,0.321-0.771c0-0.291-0.113-0.564-0.318-0.769C12.714,9.179,12.441,9.066,12.15,9.066z"/>
	</g>
	<g>
	</g>
	<g>
	</g>
	<g>
	</g>
	<g>
	</g>
	<g>
	</g>
	<g>
	</g>
	<g>
	</g>
	<g>
	</g>
	<g>
	</g>
	<g>
	</g>
	<g>
	</g>
	<g>
	</g>
	<g>
	</g>
	<g>
	</g>
	<g>
	</g>
</g>
<g>
</g>
<g>
</g>
<g>
</g>
<g>
</g>
<g>
</g>
<g>
</g>
<g>
</g>
<g>
</g>
<g>
</g>
<g>
</g>
<g>
</g>
<g>
</g>
<g>
</g>
<g>
</g>
<g>
</g>
</svg>
