<?xml version="1.0" encoding="iso-8859-1"?>
<!-- Generator: Adobe Illustrator 18.0.0, SVG Export Plug-In . SVG Version: 6.00 Build 0)  -->
<!DOCTYPE svg PUBLIC "-//W3C//DTD SVG 1.1//EN" "http://www.w3.org/Graphics/SVG/1.1/DTD/svg11.dtd">
<svg xmlns="http://www.w3.org/2000/svg" xmlns:xlink="http://www.w3.org/1999/xlink" version="1.1" id="Capa_1" x="0px" y="0px" viewBox="0 0 57.799 57.799" style="enable-background:new 0 0 57.799 57.799;" xml:space="preserve" width="512px" height="512px">
<g>
	<path d="M53.391,2.943L50.448,0L31.077,19.371L1.535,48.912l6.446,5.626L7.98,54.539l0.706,0.617l0.004,0.001l2.284,1.993   c0.447,0.432,1.011,0.648,1.704,0.648c1.423,0,3.39-0.915,6.011-2.775c2.973-2.11,6.578-5.315,10.151-9.024   c3.324-3.452,13.898-14.961,10.499-18.279l-2.439-2.464l-0.37-0.375l-0.001,0.001l-0.606-0.612c1.899-0.413,4.88-1.351,7.71-3.449   c0.22-0.186,5.427-4.591,8.355-9.513l0.064-0.129c0.048-0.106,0.524-1.023,2.372-0.656l0.413,0.082l0.347-0.237   c0.097-0.065,0.941-0.68,1.063-1.984C56.395,6.815,55.433,4.985,53.391,2.943z M37.942,29.15c0.209,0.202,0.27,1.603-2.127,5.261   c-1.935,2.952-4.923,6.575-8.415,10.2c-3.489,3.622-6.994,6.741-9.869,8.781c-3.56,2.528-4.955,2.519-5.206,2.285l-0.949-0.829   c5.052-1.907,12.952-9.943,14.723-11.788c1.729-1.803,9.254-9.84,10.91-14.853l0.917,0.926L37.942,29.15z M35.107,26.287   l0.237,0.239c0.06,1.927-3.543,7.7-10.689,15.149C17.571,49.06,11.566,53.257,9.564,53.267L9.407,53.13l-0.111-0.097l0,0   l-4.834-4.221l26.606-26.605L35.107,26.287L35.107,26.287L35.107,26.287z M54.199,8.468c-2.36-0.242-3.591,1.039-3.963,1.876   c-2.762,4.605-7.837,8.902-7.841,8.907c-3.285,2.435-6.925,3.117-8.16,3.286l-1.748-1.748L50.448,2.828l1.529,1.529   c2.044,2.044,2.309,3.244,2.285,3.777C54.256,8.271,54.23,8.381,54.199,8.468z" fill="#D80027"/>
	<circle cx="37.625" cy="18.812" r="1.445" fill="#D80027"/>
	<circle cx="49.183" cy="7.254" r="1.445" fill="#D80027"/>
</g>
<g>
</g>
<g>
</g>
<g>
</g>
<g>
</g>
<g>
</g>
<g>
</g>
<g>
</g>
<g>
</g>
<g>
</g>
<g>
</g>
<g>
</g>
<g>
</g>
<g>
</g>
<g>
</g>
<g>
</g>
</svg>
